<?xml version="1.0" encoding="UTF-8"?>
<!-- Generator: Adobe Illustrator 21.0.0, SVG Export Plug-In . SVG Version: 6.00 Build 0)  -->
<svg version="1.1" id="Слой_1" xmlns="http://www.w3.org/2000/svg" xmlns:xlink="http://www.w3.org/1999/xlink" x="0px" y="0px" viewBox="0 0 100 100" style="enable-background:new 0 0 100 100;" xml:space="preserve">
<style type="text/css">
	.st0{fill:#058C14;}
</style>
<path d="M-516-117.3"/>
<path d="M-515.4-121.3c0.6-3.5,1.4-7,2.4-10.5"/>
<g>
	<g>
		<path d="M65.7,30.6c-4.9-1.3-8.4,0.1-8.1,3.4C59.3,31.4,62.4,30.8,65.7,30.6z"/>
		<path d="M59,47.5c0.1,0.1-0.1,0.2-0.7,0.5c-2.5,1.3-5.2,1.4-7.9,1c-0.8-0.1-1.5-0.4-2.2-0.6c-0.1,0,0-0.8,0.1-0.7    c1,0.1,1.8-0.3,2.4-1c0.5-0.6,1.1-0.7,1.8-0.4c0.2,0.1,0.4,0,0.7-0.1c0.5-0.2,1.1-0.2,1.5,0.3c1.1,1.2,2.5,1.5,3.9,1    C58.8,47.4,58.9,47.4,59,47.5z"/>
		<path d="M52.8,50c-1.2,0-2.3-0.1-3.8-0.6c2.4,3.4,5.5,3.4,7.5,0C55.4,49.7,54.1,50,52.8,50z"/>
		<g>
			<path d="M70.4,23.3c0,3.1,0.2,6.1,0,9.1c-0.2,2.9-1.6,8.6-1.8,8.6c1-9.1,1.4-18.2-0.8-27.2c-1.5,3.3-4.2,4.9-6.9,6.3     c-3.3,1.8-6.7,3.4-10.2,4.9C45,27.3,42,33,40.8,39.8c1-2.3,1.6-3.4,2.2-4.1c-1.9,6-1.8,12-0.7,18.1c-2.6-6.3-3.2-12.8-2.3-20.1     c-3.1,9.1-0.6,24.2,9.4,29.5c-0.2-1-0.4-1.8-0.7-2.7c-1.3-4.9-1.6-9.9-0.5-14.9c2.3-11,8.5-19.2,16-26.5c0,0,0.5-0.6,1.4-1.1     c-0.4,0.4-1.6,1.4-1.8,1.9c-0.4,0.8,0.3,1.9,0.6,2.8c1.1,3.2,2.4,6.5,2.7,9.8c0.7,10-2.5,18.4-10.2,25.1     C71.1,51.9,78.8,32.1,70.4,23.3z"/>
			<path d="M54.2,12c-7-4.2-13.9,5.3-14.1,5.5c0,0,0,0,0.1,0c-0.2,0.2-0.4,0.4-0.5,0.6c-4.2,6.1-6,12.8-5.2,20.4     c0.1,0.7,0.3,1.6,0.5,2.9c-2.7-4.4-4.4-6.3-8.8-7.7c1,3.5,2.1,6.2,5,7.5c1.4,0.6,3,0.6,3.9,1.3c1.4,3.3,1.5,5.2,2.5,7.5     c-1.4-5.6-3.1-12.7-2.3-19.4l2.3-2.2c0,0-1.4,1.8-1.8,3.8c-0.4,2,4-1.7,4.8-4.8c0-2.9-3.5,0.6-5.1,2.4c0.1-0.7,0.3-1.5,0.5-2.2     c0.8-3.8,2.2-6,3.8-8.7c0.2,0.1,0.5,0.1,0.7,0.2c0.3,0.8,0.5,1.7,0.9,2.4c0.9,1.7,2.3,2.2,3.9,1.4c1-0.6,2-3.8-1.2-5.4     c-1-0.5-2.2-1-3.2-0.4c4.1-2.7,7.3,1.2,9.9,2.6c2.2,1.1,4,0.3,5.3-2.2C56.8,15.4,56.2,13.4,54.2,12z M30.9,39.8     c-1.3-0.6-1.8-1.8-2.3-3.4c2,0.6,4,3.5,4,3.5l0.7,0.9C33.3,40.8,32,40.3,30.9,39.8z"/>
			<path d="M56.3,20.4c0,0,7.7-0.6,10.6-7.5c-2.4,2.4-5.5,4-5.5,4s1.2-0.2,3-1.4C64.2,16.7,59.2,19.7,56.3,20.4z"/>
		</g>
		<g>
			<circle cx="51.8" cy="44" r="0.5"/>
			<circle cx="53.8" cy="44" r="0.5"/>
		</g>
		<path d="M63.7,33.9c0.5-0.6,1.5-0.7,2.1-0.2c0.1,0.1,0.2,0.2,0.3,0.4c0.1-0.4,0.2-0.7,0.2-1.1c-4.3-1.1-7.3,0.5-8.5,4.5    c2.8,0.7,5.3,0.2,6.8-1.1c-0.3,0-0.6-0.1-0.8-0.3C63.3,35.4,63.2,34.5,63.7,33.9z"/>
	</g>
	<g>
		<path d="M21.7,83v2c0,0.7,0,1.3-0.1,2l0,0c0.2-0.5,0.5-1,0.9-1.5L24,83h0.6v4.6h-0.6v-2c0-0.7,0-1.3,0.1-1.9l0,0    c-0.2,0.5-0.5,1-0.9,1.6l-1.4,2.3h-0.6V83H21.7z"/>
		<path d="M26.2,84.4v1.3h1.6v-1.3h0.6v3.3h-0.6v-1.5h-1.6v1.5h-0.6v-3.3H26.2z"/>
		<path d="M31.6,84.4v0.5h-1v2.8H30v-2.8h-1v-0.5H31.6z"/>
		<path d="M32.4,86.1c0,0.8,0.5,1.2,1.1,1.2c0.4,0,0.7-0.1,0.9-0.2l0.1,0.4c-0.2,0.1-0.6,0.2-1.1,0.2c-1,0-1.6-0.7-1.6-1.7    c0-1,0.6-1.8,1.6-1.8c1.1,0,1.4,1,1.4,1.6c0,0.1,0,0.2,0,0.3H32.4z M34.2,85.7c0-0.4-0.2-1-0.8-1c-0.6,0-0.9,0.6-0.9,1H34.2z"/>
		<path d="M35.5,85.4c0-0.4,0-0.8,0-1.1H36l0,0.6h0c0.2-0.4,0.6-0.6,1.2-0.6c0.8,0,1.4,0.7,1.4,1.7c0,1.2-0.7,1.8-1.5,1.8    c-0.4,0-0.8-0.2-1-0.5h0V89h-0.6V85.4z M36.1,86.3c0,0.1,0,0.2,0,0.2c0.1,0.4,0.5,0.7,0.9,0.7c0.6,0,1-0.5,1-1.3    c0-0.7-0.4-1.2-1-1.2c-0.4,0-0.8,0.3-0.9,0.7c0,0.1,0,0.2,0,0.2V86.3z"/>
		<path d="M40,84.4v1.3h1.6v-1.3h0.6v3.3h-0.6v-1.5H40v1.5h-0.6v-3.3H40z"/>
		<path d="M43.5,86.1c0,0.8,0.5,1.2,1.1,1.2c0.4,0,0.7-0.1,0.9-0.2l0.1,0.4c-0.2,0.1-0.6,0.2-1.1,0.2c-1,0-1.6-0.7-1.6-1.7    c0-1,0.6-1.8,1.6-1.8c1.1,0,1.4,1,1.4,1.6c0,0.1,0,0.2,0,0.3H43.5z M45.3,85.7c0-0.4-0.2-1-0.8-1c-0.6,0-0.9,0.6-0.9,1H45.3z"/>
		<path d="M48.8,84.4v0.5h-1v2.8h-0.6v-2.8h-1v-0.5H48.8z"/>
		<path d="M52.3,85.6V86h-1.7v-0.4H52.3z"/>
		<path d="M54.5,84.4h0.7l0.6,1.7c0.1,0.2,0.2,0.7,0.3,0.9h0c0.1-0.2,0.3-0.8,0.4-1.1l0.5-1.4h0.7l0.2,3.3h-0.6l-0.1-1.6    c0-0.4,0-0.8-0.1-1.2h0c-0.1,0.3-0.2,0.6-0.4,1.1l-0.6,1.7h-0.4L55.3,86c-0.1-0.3-0.2-0.8-0.3-1.1h0c0,0.4,0,0.8-0.1,1.2l-0.1,1.6    h-0.6L54.5,84.4z"/>
		<path d="M60.6,87.7l0-0.4h0c-0.2,0.3-0.5,0.5-1,0.5c-0.7,0-1-0.5-1-1c0-0.8,0.7-1.2,2-1.2v-0.1c0-0.3-0.1-0.8-0.8-0.8    c-0.3,0-0.6,0.1-0.9,0.2l-0.1-0.4c0.3-0.2,0.7-0.3,1.1-0.3c1,0,1.3,0.7,1.3,1.4v1.2c0,0.3,0,0.6,0.1,0.8H60.6z M60.6,86    c-0.7,0-1.4,0.1-1.4,0.7c0,0.4,0.3,0.6,0.6,0.6c0.4,0,0.7-0.3,0.8-0.6c0-0.1,0-0.1,0-0.2V86z"/>
		<path d="M64.1,84.4v0.5h-1.4v2.8h-0.6v-3.3H64.1z"/>
		<path d="M66.5,87.7l0-0.4h0c-0.2,0.3-0.5,0.5-1,0.5c-0.7,0-1-0.5-1-1c0-0.8,0.7-1.2,2-1.2v-0.1c0-0.3-0.1-0.8-0.8-0.8    c-0.3,0-0.6,0.1-0.9,0.2l-0.1-0.4c0.3-0.2,0.7-0.3,1.1-0.3c1,0,1.3,0.7,1.3,1.4v1.2c0,0.3,0,0.6,0.1,0.8H66.5z M66.4,86    c-0.7,0-1.4,0.1-1.4,0.7c0,0.4,0.3,0.6,0.6,0.6c0.4,0,0.7-0.3,0.8-0.6c0-0.1,0-0.1,0-0.2V86z"/>
		<path d="M68.2,85.7h0.3c0.5,0,0.9-0.2,0.9-0.5c0-0.3-0.3-0.5-0.6-0.5c-0.3,0-0.6,0.1-0.8,0.2l-0.2-0.4c0.3-0.2,0.7-0.3,1.1-0.3    c0.5,0,1.1,0.2,1.1,0.9c0,0.4-0.4,0.7-0.7,0.8v0c0.5,0,0.9,0.3,0.9,0.8c0,0.7-0.7,1-1.4,1c-0.4,0-0.8-0.1-1.1-0.3l0.2-0.4    c0.2,0.1,0.6,0.2,0.9,0.2c0.5,0,0.8-0.2,0.8-0.6c0-0.4-0.5-0.6-1-0.6h-0.3V85.7z"/>
		<path d="M71.5,84.4v1.4c0,0.5,0,0.9,0,1.3l0,0c0.2-0.4,0.3-0.6,0.5-1l1-1.7h0.7v3.3h-0.6v-1.4c0-0.5,0-0.8,0-1.4h0    c-0.2,0.4-0.4,0.7-0.5,1c-0.3,0.5-0.7,1.2-1,1.7h-0.7v-3.3H71.5z"/>
		<path d="M75.3,84.4v1.3h1.6v-1.3h0.6v3.3h-0.6v-1.5h-1.6v1.5h-0.6v-3.3H75.3z"/>
	</g>
	<g>
		<g>
			<path class="st0" d="M24.7,74.9c-0.2,0.4-0.5,0.5-0.7,0.5c-1,0-1.7-1-2.2-3.1c-0.3-1.3-0.4-2.6-0.4-3.8c0-0.1,0-0.3,0-0.6     c0-0.2,0-0.5,0-0.8c0-0.3,0-0.6,0-0.8c0-0.2,0-0.4,0-0.6v-0.3c-0.1,0.3-0.3,0.9-0.5,1.5c-0.2,0.7-0.5,1.5-0.9,2.5     c-1,2.8-2,4.2-3,4.2c-1.2,0-2.1-1.4-2.7-4.3c0-0.1,0-0.3-0.1-0.5c0-0.2-0.1-0.5-0.1-0.9c0-0.1-0.2-0.9-0.4-2.7     c-0.2,0.3-0.4,1.1-0.9,2.2c-1.7,4.6-3.6,6.9-5.9,6.9c-0.8,0-1.6-0.4-2.2-1.1l0.5-0.3c0.5,0.1,0.9,0.2,1.2,0.2     c0.3,0,0.6,0.1,0.7,0.1c0.4,0,0.9-0.2,1.4-0.6v0c0.4-0.2,0.7-0.6,1.1-1.1c0.9-1.4,1.7-3,2.4-5c0.8-2.1,1.1-3.8,1.1-5.2     c0-0.7,0.3-1.1,0.9-1.1c0.4,0,0.9,0.2,1.7,0.7c-0.2,0.4-0.3,1.3-0.3,2.8c0,1,0,2,0.1,2.9c0.1,0.9,0.2,1.8,0.3,2.6     c0.3,1.9,0.8,2.9,1.3,2.9c0.3,0,1-1.2,2-3.6c0.9-2.1,1.5-4,1.9-5.7c0-0.1,0-0.2,0-0.5c0-0.2,0-0.5,0-0.9c0-0.5,0.2-0.8,0.5-0.9     c1.4,0,2.2,0.2,2.3,0.7c-0.3,0.5-0.5,1.8-0.7,3.8c-0.2,1.8-0.3,3.2-0.3,4.1c0,3.2,0.5,4.9,1.6,5.1L24.7,74.9z"/>
			<path class="st0" d="M26.7,72.8c-0.4,0.9-0.9,1.3-1.5,1.3c-0.9,0-1.4-0.9-1.4-2.7v-0.3c0-0.6,0.2-1.4,0.5-2.5     c0.4-1.4,0.9-2.1,1.3-2.1c0.8,0,1.2,0.2,1.5,0.6l0.4,0.6l0.9,0.2c-0.5,1.4-0.8,2.6-0.8,3.6v0.2c0,0.8,0.1,1.2,0.4,1.2     c0.4,0,1-1.5,1.8-4.5c0.1-0.4,0.3-0.6,0.5-0.6c0.3,0,0.4,0.2,0.4,0.5c0,0.4-0.3,1.4-0.8,2.9c-0.6,1.7-1.2,2.6-1.8,2.6     C27.5,73.8,27,73.4,26.7,72.8z M26.7,68.6l-0.2-0.3c-0.1-0.5-0.2-0.8-0.3-0.8c-0.1,0-0.3,0.3-0.5,0.8l0,0.1     c0,0.1-0.1,0.2-0.1,0.4c-0.1,0.2-0.2,0.5-0.3,0.8c-0.2,0.8-0.4,1.7-0.4,2.8c0,0.5,0.1,0.7,0.4,0.8c0.2-0.1,0.5-0.6,0.8-1.4     c0.1-0.3,0.2-0.7,0.3-0.9c0.1-0.3,0.1-0.5,0.2-0.7L26.7,68.6z"/>
			<path class="st0" d="M30.6,74c-0.2,0-0.4,0-0.6-0.1c-0.2-0.1-0.4-0.2-0.5-0.3c-0.1-0.1-0.3-0.3-0.4-0.4c-0.1-0.1-0.1-0.3-0.1-0.5     c0-0.3,0.1-0.5,0.3-0.6c0.2,0,0.3,0.2,0.3,0.5c0.2,0.4,0.3,0.5,0.6,0.5c0.5,0,0.7-0.4,0.7-1.3c0-0.4-0.1-1-0.4-2     c0-0.1-0.1-0.3-0.2-0.6c-0.3,1.2-0.7,1.8-1,1.8c0,0,0,0-0.1,0c-0.1,0-0.2,0-0.4,0c0.6-2.1,0.9-3.5,0.9-4.4c0-0.5,0.2-0.7,0.7-0.7     c0.5,0,0.8,0.2,0.8,0.6c0,0.1,0,0.3-0.1,0.5c-0.1,0.2-0.1,0.4-0.1,0.5c0,0.5,0.2,1.2,0.5,2.2c0.3,1,0.5,1.8,0.5,2.2     C32.1,73.3,31.6,74,30.6,74z"/>
			<path class="st0" d="M40.2,64.4c-0.1,0.1-0.6,0.2-1.3,0.3c-0.7,0.1-1.1,0.1-1.3,0.1c-0.4,0-0.7,0-1,0c-0.3,0-0.7,0-1,0l-0.9,0     c-0.2,1-0.3,1.9-0.4,2.7c-0.1,0.8-0.1,1.4-0.1,1.9c0,0.6,0,1,0,1.4c0,0.4,0,0.6,0,0.8c0.1,0.7,0.2,1,0.4,1c0.5,0,1.1-1.3,1.8-3.9     c0.2-0.7,0.4-1,0.6-1c0.3,0,0.5,0.2,0.5,0.5c0,0.5-0.3,1.4-0.8,2.8c-0.7,1.8-1.4,2.7-2.1,2.7c-0.7,0-1.1-0.5-1.4-1.5     c-0.2-0.5-0.2-1.1-0.2-1.8c0-0.2,0-0.8,0.1-1.7c0.1-0.9,0.2-2.2,0.4-3.8c-0.1,0-0.3,0-0.6,0c-0.3,0-0.7,0-1.3,0l-0.7,0.2     c-0.2-0.1-0.3-0.3-0.5-0.3c-0.3-0.1-0.4-0.2-0.4-0.4c0-0.2,0.2-0.3,0.5-0.3c0.4,0,0.9,0,1.4,0c0.5,0,1.1,0,1.7-0.1v0     c0,0.1,0,0,0-0.2c0-0.2,0-0.5,0-1l-0.1-0.4c0.1-0.2,0.3-0.3,0.5-0.3c0.2,0,0.6,0.2,1.1,0.5v0.5c0,0.1,0,0.2-0.1,0.4     c0,0.2-0.1,0.4-0.2,0.6h0.5c0.3,0,0.6,0,0.8,0s0.4,0,0.6,0c0.1,0,0.4,0,1,0c0.6,0,1.4,0,2.4,0.1v0.3L40.2,64.4z"/>
			<path class="st0" d="M41.3,69.5c-0.3,1.3-0.7,2.2-0.9,2.7c-0.6,1.2-1.3,1.8-2.1,1.8c-0.7,0-1.3-0.3-1.7-0.9     c-0.3-0.5-0.5-1.1-0.5-1.8c0-0.4,0-0.9,0.1-1.3c0-0.4,0.1-0.9,0.2-1.3c0.3-1.5,0.8-2.2,1.4-2.2c0.4,0,0.7,0.1,1,0.4     c0.3,0.2,0.5,0.5,0.5,0.8c0,1-0.3,2-1,3.3c-0.2,0.3-0.3,0.6-0.5,0.8c-0.2,0.2-0.3,0.4-0.4,0.6c0,0.2,0.1,0.4,0.3,0.6     c0.2,0.2,0.4,0.3,0.5,0.3c0.6,0,1.3-1.4,2.2-4.2c0.3-0.8,0.5-1.2,0.6-1.2c0.3,0,0.5,0.1,0.5,0.4C41.6,68.3,41.5,68.8,41.3,69.5z      M38.2,67.3c0,0-0.1,0.1-0.1,0.1c-0.5,1.2-0.7,2.4-0.8,3.5c0.1-0.1,0.2-0.3,0.3-0.5c0.1-0.2,0.2-0.4,0.3-0.7     c0.3-0.9,0.4-1.5,0.4-1.9C38.2,67.5,38.2,67.3,38.2,67.3z"/>
			<path class="st0" d="M42.6,73c-0.1-0.2-0.2-0.6-0.2-1.3c0-0.1,0-0.3,0-0.4c0-0.1,0-0.3,0-0.4c0-0.1,0-0.2,0-0.4     c0-0.2,0-0.4,0-0.6l0-1.5c0-0.2-0.2-0.4-0.7-0.6c-0.1,0.6-0.3,1.2-0.5,1.8v0c0,0-0.1,0.1-0.1,0.3c0,0-0.1,0.1-0.2,0.3L40.3,70     c0-0.3,0.1-0.7,0.3-1.4c0.1-0.3,0.1-0.6,0.2-0.8c0-0.2,0.1-0.4,0.1-0.6c0-0.1-0.1-0.3-0.2-0.6c-0.1-0.3-0.2-0.5-0.2-0.7     c0-0.8,0.3-1.1,0.8-1.1c0.5,0,0.7,0.3,0.7,0.8v0.1c0,0.2,0,0.4,0,0.4v0.1l0,0.6c0,0,0.3,0.2,0.8,0.4c0.7,0.3,1,0.7,1,1.2     c0,0.2,0,0.5,0,0.8c0,0.3-0.1,0.7-0.1,1.1c-0.1,0.4-0.1,0.8-0.1,1.1c0,0.3,0,0.6,0,0.8c0,0.5,0.1,0.7,0.4,0.7c0.2,0,0.5-0.7,1-2     c0.2-0.6,0.4-1.2,0.6-1.6c0.1-0.4,0.2-0.8,0.3-1c0.1-0.4,0.2-0.6,0.5-0.6c0.3,0,0.4,0.2,0.4,0.5c0,0.5-0.3,1.5-0.9,3     c-0.7,1.7-1.3,2.6-1.7,2.6C43.4,73.8,42.9,73.5,42.6,73z"/>
			<path class="st0" d="M56.1,70c-0.4,0.8-1,1.2-1.6,1.2c-0.2,0-0.4,0-0.6-0.1c0,0.1-0.1,0.3-0.1,0.6c0,0,0,0,0,0.1c0,0,0,0.1,0,0.1     c-0.3,0.6-0.5,1.1-0.6,1.3h0c-0.3,0.5-0.8,0.7-1.3,0.7c-1.2,0-1.9-1-1.9-3c0-1.1,0.1-1.9,0.4-2.5c0-0.2,0-0.3,0-0.5     c0-0.2,0.1-0.3,0.2-0.3c0-0.1,0-0.1,0-0.2c0-0.1,0-0.2,0.1-0.3l0.1-0.2c0.2-0.5,0.5-0.8,1-0.8c0.4,0,0.9,0.1,1.3,0.4     c0.5,0.3,0.8,0.6,0.9,1c0.1,0.4,0.2,1.3,0.2,2.7c0.1,0.1,0.2,0.1,0.3,0.1c0.4,0,0.8-0.2,1-0.6c0.1-0.2,0.3-0.7,0.5-1.5     c0.1-0.3,0.2-0.5,0.5-0.5c0.3,0,0.4,0.1,0.4,0.4C56.6,68.7,56.4,69.4,56.1,70z M52.7,70.4c0-0.2-0.1-0.4-0.1-0.7     c-0.1-0.3-0.1-0.5-0.1-0.7c0-0.2,0-0.4,0-0.5c0-0.2,0-0.4,0-0.4c0-0.1,0-0.3,0-0.3c0-0.1,0-0.1,0-0.1c0-0.3-0.2-0.5-0.5-0.5     c-0.2,0-0.4,0.6-0.6,1.7c-0.1,0.5-0.2,1-0.2,1.3c0,0.4-0.1,0.7-0.1,0.9c0,1.2,0.3,1.9,0.8,1.9c0.1,0,0.2-0.2,0.5-0.6     c0.3-0.7,0.5-1.1,0.5-1.4C52.8,70.8,52.8,70.6,52.7,70.4z"/>
			<path class="st0" d="M60.1,69.4c0,0.1-0.1,0.3-0.2,0.7c-0.1,0.3-0.2,0.8-0.4,1.3c-0.2,0.6-0.5,1-0.9,1.4h0     c-0.2,0.2-0.5,0.3-0.8,0.4c0.4,1.4,0.6,2.6,0.6,3.5c0,1.8-0.3,3.2-0.8,4c-0.1,0.2-0.4,0.3-0.7,0.3c-1.3,0-1.9-1.2-1.9-3.7v-0.3     c0-2.4,0.1-4.9,0.4-7.6c0.2-2.7,0.6-5.5,1.1-8.5c0.2-0.2,0.5-0.2,0.9-0.2c0.3,0,0.6,0.1,1,0.4c-0.4,0.5-0.7,1.1-0.8,1.8     c-0.3,1.6-0.6,3-0.8,4.3c-0.2,1.3-0.3,2.5-0.4,3.6c0.3,0.1,0.6,0.3,0.8,0.7h0c0,0,0.1,0.1,0.1,0.3c0.1,0.1,0.2,0.3,0.3,0.6     c0.3,0,0.6-0.4,0.9-1.1v0c0.1-0.3,0.3-0.7,0.4-1.2c0.2-0.5,0.4-1.2,0.6-2v0c0.1-0.3,0.2-0.4,0.4-0.4c0.3,0,0.4,0.2,0.4,0.5     C60.5,68.2,60.4,68.6,60.1,69.4z M57,73.1c-0.1,0-0.1-0.1-0.2-0.1c-0.1-0.1-0.2-0.1-0.3-0.3c-0.1,0.9-0.1,1.7-0.1,2.4     c0,0.7,0,1.3,0,1.7c0,0.2,0,0.5,0,0.8c0,0.3,0.1,0.6,0.1,1v0c0.2,0.9,0.4,1.3,0.5,1.3c0.1,0,0.3-0.4,0.5-1.2     c0.1-0.7,0.2-1.3,0.2-1.7C57.6,75.4,57.4,74.1,57,73.1z"/>
			<path class="st0" d="M68,70.1c-0.1,0.5-0.2,1.1-0.3,1.6c-0.4,1.7-1,2.5-1.7,2.5c-0.4,0-0.7-0.3-1-0.8c-0.1,0.1-0.3,0.2-0.4,0.2     c-0.2,0-0.3-0.1-0.5-0.3c-0.2-0.2-0.2-0.4-0.2-0.6l0-0.2v-0.4c0-2.1,0.1-4.2,0.4-6.2l0.6-4.2c0-0.1,0-0.2,0-0.3     c0-0.1,0-0.2,0-0.3c0-0.2,0-0.2,0-0.3c0.1-0.2,0.3-0.4,0.7-0.4h0.1c0.5,0,0.7,0.2,0.7,0.7c0,0.2,0,0.4-0.1,0.7v0     c-0.1,0.2-0.1,0.4-0.2,0.6c0,0.2-0.1,0.4-0.1,0.5c-0.2,1-0.4,2-0.5,2.8c-0.1,0.8-0.2,1.5-0.3,2c0.3-0.9,0.8-1.3,1.4-1.3     c1,0,1.5,0.6,1.5,1.9C68.1,69.1,68,69.6,68,70.1z M66.7,67.5c-0.3,0-0.7,0.7-1,2.1c-0.4,1.3-0.6,2.2-0.6,2.7     c0.2,0.2,0.4,0.4,0.5,0.6c0.1,0.1,0.2,0.2,0.3,0.2c0.2,0,0.4-0.4,0.6-1.1C66.8,71.1,67,70,67,69C67,68,66.9,67.5,66.7,67.5z"/>
			<path class="st0" d="M74.2,69.5c-0.3,1.3-0.7,2.2-0.9,2.7C72.8,73.4,72,74,71.2,74c-0.7,0-1.3-0.3-1.7-0.9     c-0.3-0.5-0.5-1.1-0.5-1.8c0-0.4,0-0.9,0.1-1.3c0-0.4,0.1-0.9,0.2-1.3c0.3-1.5,0.8-2.2,1.4-2.2c0.4,0,0.7,0.1,1,0.4     c0.3,0.2,0.5,0.5,0.5,0.8c0,1-0.3,2-1,3.3c-0.2,0.3-0.3,0.6-0.5,0.8c-0.2,0.2-0.3,0.4-0.4,0.6c0,0.2,0.1,0.4,0.3,0.6     c0.2,0.2,0.4,0.3,0.5,0.3c0.6,0,1.3-1.4,2.2-4.2c0.3-0.8,0.5-1.2,0.6-1.2c0.3,0,0.5,0.1,0.5,0.4C74.6,68.3,74.5,68.8,74.2,69.5z      M71.1,67.3c0,0-0.1,0.1-0.1,0.1c-0.5,1.2-0.7,2.4-0.8,3.5c0.1-0.1,0.2-0.3,0.3-0.5c0.1-0.2,0.2-0.4,0.3-0.7     c0.3-0.9,0.4-1.5,0.4-1.9C71.2,67.5,71.2,67.3,71.1,67.3z"/>
			<path class="st0" d="M75.8,72.8c-0.4,0.9-0.9,1.3-1.5,1.3c-0.9,0-1.4-0.9-1.4-2.7v-0.3c0-0.6,0.2-1.4,0.5-2.5     c0.4-1.4,0.9-2.1,1.3-2.1c0.8,0,1.2,0.2,1.5,0.6l0.4,0.6l0.9,0.2c-0.5,1.4-0.8,2.6-0.8,3.6v0.2c0,0.8,0.1,1.2,0.4,1.2     c0.4,0,1-1.5,1.8-4.5c0.1-0.4,0.3-0.6,0.5-0.6c0.3,0,0.4,0.2,0.4,0.5c0,0.4-0.3,1.4-0.8,2.9c-0.6,1.7-1.2,2.6-1.8,2.6     C76.6,73.8,76.2,73.4,75.8,72.8z M75.8,68.6l-0.2-0.3c-0.1-0.5-0.2-0.8-0.3-0.8c-0.1,0-0.3,0.3-0.5,0.8l0,0.1     c0,0.1-0.1,0.2-0.1,0.4c-0.1,0.2-0.2,0.5-0.3,0.8c-0.2,0.8-0.4,1.7-0.4,2.8c0,0.5,0.1,0.7,0.4,0.8c0.2-0.1,0.5-0.6,0.8-1.4     c0.1-0.3,0.2-0.7,0.3-0.9c0.1-0.3,0.1-0.5,0.2-0.7L75.8,68.6z"/>
			<path class="st0" d="M82.6,66.5c0.6,0,0.9,0.2,0.9,0.5c0,0.1-0.1,0.3-0.3,0.7c0,0.1-0.1,0.6-0.2,1.4v0c-0.1,0.4-0.1,0.7-0.1,1     c0,0.3,0,0.5,0,0.7c0,1.1,0.1,1.6,0.4,1.6c0.3,0,0.6-0.7,1.1-2c0.1-0.4,0.3-0.8,0.4-1.2c0.1-0.4,0.3-0.8,0.4-1.2     c0.1-0.3,0.3-0.4,0.5-0.4c0.3,0,0.4,0.1,0.4,0.4c0,0.4-0.3,1.3-0.8,2.7c-0.7,1.8-1.4,2.7-2.1,2.7c-0.4,0-0.7-0.2-1-0.7v0     l-0.2-0.5c-0.1,0.2-0.2,0.3-0.3,0.5c-0.1,0.2-0.2,0.3-0.3,0.5c-0.3,0.3-0.6,0.5-1.1,0.5s-0.8-0.2-1.1-0.6     c-0.2-0.3-0.3-0.7-0.3-1.2c0-2.7,0.1-4.3,0.3-4.6c0.1-0.2,0.3-0.3,0.6-0.3c0.2,0,0.4,0.1,0.6,0.2c0.2,0.1,0.3,0.3,0.3,0.5     c0,0.2,0,0.4-0.1,0.5v0c0,0.1,0,0.1-0.1,0.2c0,0.1-0.1,0.2-0.1,0.3l0,0c-0.1,0.5-0.2,1.1-0.2,1.6c0,0.6-0.1,1.2-0.1,1.9     c0,0.4,0.1,0.6,0.2,0.6c0.1,0,0.2-0.1,0.4-0.4v0c0.3-0.5,0.5-1.1,0.7-1.8l0.4-1.8c0.2-0.7,0.2-1.2,0.2-1.7c0,0,0-0.1,0-0.1     c0,0,0-0.1,0-0.1C81.9,66.8,82.1,66.5,82.6,66.5z"/>
			<path class="st0" d="M92.1,64.4c-0.1,0.1-0.6,0.2-1.3,0.3c-0.7,0.1-1.1,0.1-1.3,0.1c-0.4,0-0.7,0-1,0c-0.3,0-0.7,0-1,0l-0.9,0     c-0.2,1-0.3,1.9-0.4,2.7c-0.1,0.8-0.1,1.4-0.1,1.9c0,0.6,0,1,0,1.4c0,0.4,0,0.6,0,0.8c0.1,0.7,0.2,1,0.4,1c0.5,0,1.1-1.3,1.8-3.9     c0.2-0.7,0.4-1,0.6-1c0.3,0,0.5,0.2,0.5,0.5c0,0.5-0.3,1.4-0.8,2.8c-0.7,1.8-1.4,2.7-2.1,2.7c-0.7,0-1.1-0.5-1.4-1.5     c-0.2-0.5-0.2-1.1-0.2-1.8c0-0.2,0-0.8,0.1-1.7c0.1-0.9,0.2-2.2,0.4-3.8c-0.1,0-0.3,0-0.6,0c-0.3,0-0.7,0-1.3,0l-0.7,0.2     c-0.2-0.1-0.3-0.3-0.5-0.3c-0.3-0.1-0.4-0.2-0.4-0.4c0-0.2,0.2-0.3,0.5-0.3c0.4,0,0.9,0,1.4,0c0.5,0,1.1,0,1.7-0.1v0     c0,0.1,0,0,0-0.2c0-0.2,0-0.5,0-1l-0.1-0.4c0.1-0.2,0.3-0.3,0.5-0.3c0.2,0,0.6,0.2,1.1,0.5v0.5c0,0.1,0,0.2-0.1,0.4     c0,0.2-0.1,0.4-0.2,0.6h0.5c0.3,0,0.6,0,0.8,0c0.2,0,0.4,0,0.6,0c0.1,0,0.4,0,1,0c0.6,0,1.4,0,2.4,0.1v0.3L92.1,64.4z"/>
			<path class="st0" d="M88,69.6c0.1-0.4,0.2-0.9,0.3-1.2c0-1,0.3-1.5,0.9-1.5c0.4,0,0.5,0.1,0.5,0.4v0.1l-0.2,2     c-0.1,0.5-0.1,1-0.1,1.4c0,0.4,0,0.7,0,1c0,0.9,0.1,1.4,0.4,1.4c0.3,0,0.7-0.9,1.2-2.8v0c0-0.3,0.1-0.8,0.2-1.4     c0.1-0.6,0.2-1.3,0.3-2.2c0.1-0.5,0.3-0.7,0.8-0.7h0.1c0.3,0,0.5,0.1,0.5,0.4c0,0.3-0.2,0.9-0.5,2c-0.1,0.4-0.2,1.4-0.2,3v1     c0-0.1,0,0.5,0.1,1.7l0,0.6c0.3-0.1,0.5-0.1,0.6-0.1c0.5-0.1,0.9-0.2,1.1-0.2c0.8,0,1.2,0.2,1.2,0.6c0,0.1,0,0.2-0.1,0.3     l-0.2,0.1c-0.5-0.1-1-0.1-1.3-0.1c-0.2,0-0.5,0.1-1.1,0.2c0,0.1,0,0.2,0,0.3c0,0.1,0,0.2,0,0.4c0,0.1,0,0.3,0,0.4     c0,0.1,0,0.2,0,0.3c0,3.1-1.2,4.7-3.6,4.7c-0.7,0-1.4-0.2-1.9-0.7c-0.5-0.5-0.8-1-0.8-1.7c0-1,0.7-2,2.1-2.9c1-0.7,2-1.1,3-1.3     c0-0.5,0-0.9-0.1-1.3c0-0.4-0.1-0.8-0.1-1.1c-0.2,0.4-0.4,0.7-0.5,0.8c-0.3,0.3-0.6,0.4-0.9,0.4c-0.9,0-1.4-0.5-1.6-1.4     c0-0.1,0-0.2,0-0.5c-0.5,1.2-1,1.8-1.4,1.8c-0.5,0-0.7-0.1-0.7-0.3c0-0.2,0.2-0.4,0.5-0.5c0.2,0,0.5-0.6,1-1.9     C87.7,70.5,87.9,70.1,88,69.6z M91.4,75.9c-1,0.3-1.9,0.7-2.7,1.3c-0.9,0.7-1.3,1.4-1.3,2.2c0,0.4,0.1,0.7,0.4,1     c0.3,0.3,0.6,0.4,1,0.4c0.9,0,1.6-0.5,2.1-1.4c0.4-0.7,0.5-1.5,0.5-2.4V75.9z"/>
		</g>
	</g>
</g>
</svg>