<svg width="30" height="30" viewBox="0 0 30 30" fill="none" xmlns="http://www.w3.org/2000/svg">
<path fill-rule="evenodd" clip-rule="evenodd" d="M0 15C0 6.71652 6.71652 0 15 0C23.2835 0 30 6.71652 30 15C30 23.2835 23.2835 30 15 30C6.71652 30 0 23.2835 0 15ZM2.54464 15C2.54464 21.8772 8.12277 27.4554 15 27.4554C21.8772 27.4554 27.4554 21.8772 27.4554 15C27.4554 8.12277 21.8772 2.54464 15 2.54464C8.12277 2.54464 2.54464 8.12277 2.54464 15ZM19.6909 9.67627H21.2612C21.4788 9.67627 21.606 9.92404 21.4755 10.1015L14.4241 19.8783C14.3256 20.0158 14.1956 20.1279 14.0451 20.2052C13.8946 20.2826 13.7278 20.3229 13.5586 20.3229C13.3894 20.3229 13.2226 20.2826 13.0721 20.2052C12.9216 20.1279 12.7916 20.0158 12.6931 19.8783L8.52121 14.0926C8.39398 13.9151 8.52121 13.6673 8.73885 13.6673H10.3092C10.654 13.6673 10.9755 13.8348 11.1763 14.1127L13.5603 17.4207L18.8237 10.1216C19.0246 9.84033 19.3493 9.67627 19.6909 9.67627Z" fill="#242529"/>
</svg>
